<svg xmlns="http://www.w3.org/2000/svg" xmlns:xlink="http://www.w3.org/1999/xlink" width="800" zoomAndPan="magnify" viewBox="0 0 600 599.999999" height="800" preserveAspectRatio="xMidYMid meet" version="1.0"><defs><g/><clipPath id="7130f44854"><path d="M 36.894531 13.9375 L 514.8125 13.9375 L 514.8125 491.855469 L 36.894531 491.855469 Z M 36.894531 13.9375 " clip-rule="nonzero"/></clipPath><clipPath id="666b89a5f9"><path d="M 275.855469 13.9375 C 143.878906 13.9375 36.894531 120.921875 36.894531 252.898438 C 36.894531 384.871094 143.878906 491.855469 275.855469 491.855469 C 407.828125 491.855469 514.8125 384.871094 514.8125 252.898438 C 514.8125 120.921875 407.828125 13.9375 275.855469 13.9375 Z M 275.855469 13.9375 " clip-rule="nonzero"/></clipPath><clipPath id="f81da66f83"><path d="M 0.894531 0.9375 L 478.8125 0.9375 L 478.8125 478.855469 L 0.894531 478.855469 Z M 0.894531 0.9375 " clip-rule="nonzero"/></clipPath><clipPath id="1e7bd5ba30"><path d="M 239.855469 0.9375 C 107.878906 0.9375 0.894531 107.921875 0.894531 239.898438 C 0.894531 371.871094 107.878906 478.855469 239.855469 478.855469 C 371.828125 478.855469 478.8125 371.871094 478.8125 239.898438 C 478.8125 107.921875 371.828125 0.9375 239.855469 0.9375 Z M 239.855469 0.9375 " clip-rule="nonzero"/></clipPath><clipPath id="41927d4bd2"><rect x="0" width="479" y="0" height="479"/></clipPath><clipPath id="81f820ce99"><path d="M 275.644531 14 L 514 14 L 514 489.4375 L 275.644531 489.4375 Z M 275.644531 14 " clip-rule="nonzero"/></clipPath><clipPath id="7262ecaf46"><path d="M 40.644531 37.777344 L 581 37.777344 L 581 472.777344 L 40.644531 472.777344 Z M 40.644531 37.777344 " clip-rule="nonzero"/></clipPath><clipPath id="b9c02d3937"><path d="M 84 303 L 443 303 L 443 435.777344 L 84 435.777344 Z M 84 303 " clip-rule="nonzero"/></clipPath><clipPath id="f3d0258b3a"><path d="M 84 0.777344 L 465 0.777344 L 465 231 L 84 231 Z M 84 0.777344 " clip-rule="nonzero"/></clipPath><clipPath id="a5657fe90c"><path d="M 0.800781 72 L 103 72 L 103 364 L 0.800781 364 Z M 0.800781 72 " clip-rule="nonzero"/></clipPath><clipPath id="25127e69d3"><rect x="0" width="541" y="0" height="436"/></clipPath><clipPath id="abb43d2d91"><path d="M 119.238281 233.015625 L 164 233.015625 L 164 276.515625 L 119.238281 276.515625 Z M 119.238281 233.015625 " clip-rule="nonzero"/></clipPath><clipPath id="8dce2841f4"><path d="M 311 563.726562 L 398 563.726562 L 398 579 L 311 579 Z M 311 563.726562 " clip-rule="nonzero"/></clipPath><clipPath id="dcffc3b036"><path d="M 287.195312 563.726562 L 306 563.726562 L 306 581.726562 L 287.195312 581.726562 Z M 287.195312 563.726562 " clip-rule="nonzero"/></clipPath><clipPath id="bad0eec5c6"><path d="M 365 563.726562 L 368 563.726562 L 368 579 L 365 579 Z M 365 563.726562 " clip-rule="nonzero"/></clipPath><clipPath id="d5c943baca"><rect x="0" width="267" y="0" height="84"/></clipPath></defs><g clip-path="url(#7130f44854)"><g clip-path="url(#666b89a5f9)"><g transform="matrix(1, 0, 0, 1, 36, 13)"><g clip-path="url(#41927d4bd2)"><g clip-path="url(#f81da66f83)"><g clip-path="url(#1e7bd5ba30)"><path fill="#1c2649" d="M 0.894531 0.9375 L 478.8125 0.9375 L 478.8125 478.855469 L 0.894531 478.855469 Z M 0.894531 0.9375 " fill-opacity="1" fill-rule="nonzero"/></g></g></g></g></g></g><g clip-path="url(#81f820ce99)"><path fill="#0ebf9d" d="M 275.894531 489.3125 L 275.894531 426.25 C 372.152344 426.25 450.460938 347.941406 450.460938 251.691406 C 450.460938 155.441406 372.152344 77.128906 275.894531 77.128906 L 275.894531 14.066406 C 348.378906 14.066406 415.902344 46.296875 462.109375 103.976562 C 489.796875 138.550781 507.136719 180.382812 512.007812 224.410156 C 520.144531 297.886719 495.1875 368.453125 443.917969 419.714844 C 399.03125 464.59375 339.359375 489.3125 275.894531 489.3125 Z M 275.894531 489.3125 " fill-opacity="1" fill-rule="nonzero"/></g><g clip-path="url(#7262ecaf46)"><g transform="matrix(1, 0, 0, 1, 40, 37)"><g clip-path="url(#25127e69d3)"><path fill="#0ebf9d" d="M 123.359375 337.199219 C 115.171875 328.273438 107.988281 318.605469 101.808594 308.1875 L 101.554688 308.1875 C 80.265625 308.1875 63.003906 267.953125 63.003906 218.308594 C 63.003906 168.664062 80.265625 128.429688 101.554688 128.429688 L 101.808594 128.429688 C 107.988281 118.011719 115.171875 108.34375 123.359375 99.417969 C 154.832031 65.101562 199.730469 43.636719 249.585938 43.636719 C 336.226562 43.636719 407.925781 108.488281 420.089844 192.914062 C 421.460938 202.484375 422.050781 212.097656 421.863281 221.761719 C 421.675781 231.421875 420.714844 241.007812 418.976562 250.515625 C 418.0625 255.492188 416.941406 260.390625 415.617188 265.214844 C 395.402344 338.898438 328.738281 392.976562 249.617188 392.976562 C 199.730469 392.984375 154.832031 371.515625 123.359375 337.199219 Z M 9.730469 218.3125 C 9.730469 293.742188 43.816406 354.871094 85.875 354.871094 C 88.402344 354.871094 90.910156 354.648438 93.398438 354.207031 C 96.777344 358.199219 100.328125 362.078125 104.050781 365.84375 C 142.914062 405.257812 194.597656 426.953125 249.558594 426.953125 C 304.519531 426.953125 356.230469 405.257812 395.109375 365.84375 C 402.878906 357.980469 409.980469 349.554688 416.414062 340.566406 C 422.84375 331.574219 428.527344 322.136719 433.464844 312.246094 L 516.300781 379.433594 C 522.113281 384.167969 530.753906 379.945312 530.753906 372.390625 L 530.753906 287.050781 C 530.757812 285.683594 530.464844 284.382812 529.878906 283.148438 C 529.296875 281.914062 528.472656 280.863281 527.414062 280 L 455.324219 221.546875 C 455.324219 220.476562 455.324219 219.398438 455.324219 218.320312 C 455.324219 162.59375 433.925781 110.199219 395.054688 70.792969 C 356.179688 31.386719 304.507812 9.683594 249.539062 9.683594 C 194.574219 9.683594 142.894531 31.378906 104.035156 70.792969 C 100.328125 74.558594 96.777344 78.4375 93.378906 82.429688 C 90.882812 81.984375 88.363281 81.761719 85.828125 81.765625 C 43.816406 81.757812 9.730469 142.886719 9.730469 218.3125 Z M 9.730469 218.3125 " fill-opacity="1" fill-rule="nonzero"/><path fill="#00ffff" d="M 101.582031 128.433594 C 80.289062 128.433594 63.03125 168.671875 63.03125 218.3125 C 63.03125 267.957031 80.289062 308.195312 101.582031 308.195312 L 101.832031 308.195312 C 123.003906 307.878906 140.125 267.753906 140.125 218.3125 C 140.125 168.875 123.011719 128.75 101.832031 128.441406 Z M 101.582031 128.433594 " fill-opacity="1" fill-rule="nonzero"/><path fill="#ffffff" d="M 418.941406 250.519531 C 420.679688 241.011719 421.644531 231.429688 421.832031 221.765625 C 422.019531 212.105469 421.425781 202.488281 420.058594 192.921875 C 407.925781 108.492188 336.226562 43.644531 249.554688 43.644531 C 199.699219 43.644531 154.796875 65.113281 123.328125 99.421875 C 115.140625 108.347656 107.957031 118.019531 101.777344 128.433594 C 122.949219 128.746094 140.066406 168.863281 140.066406 218.308594 C 140.066406 267.753906 122.953125 307.871094 101.777344 308.183594 C 107.957031 318.597656 115.140625 328.269531 123.328125 337.191406 C 154.796875 371.511719 199.699219 392.972656 249.554688 392.972656 C 328.675781 392.972656 395.339844 338.890625 415.550781 265.207031 C 416.894531 260.398438 418.027344 255.503906 418.941406 250.519531 Z M 418.941406 250.519531 " fill-opacity="1" fill-rule="nonzero"/><g clip-path="url(#b9c02d3937)"><path stroke-linecap="round" transform="matrix(-0.633851, 0, 0, 0.633851, 587.166966, -98.610939)" fill="none" stroke-linejoin="round" d="M 242.507969 648.192149 C 250.291496 663.796179 259.258267 678.685333 269.402119 692.865773 C 279.545971 707.052375 290.74365 720.345382 303.001318 732.750955 C 364.320472 794.932892 445.847215 829.160689 532.569139 829.160689 C 619.291063 829.160689 700.817806 794.932892 762.130797 732.750955 C 767.979227 726.810084 773.581148 720.690494 778.942722 714.392185 " stroke="#000000" stroke-width="28" stroke-opacity="1" stroke-miterlimit="4"/></g><g clip-path="url(#f3d0258b3a)"><path stroke-linecap="round" transform="matrix(-0.633851, 0, 0, 0.633851, 587.166966, -98.610939)" fill="none" stroke-linejoin="round" d="M 208.002849 505.087417 C 208.002849 503.39883 208.002849 501.697916 208.002849 499.997003 C 208.002849 412.07951 241.762279 329.418825 303.087596 267.249214 C 364.419076 205.079603 445.939656 170.83948 532.66158 170.83948 C 619.377341 170.83948 700.910247 205.067278 762.217075 267.249214 C 768.065505 273.190085 773.667426 279.309675 779.029 285.607984 " stroke="#000000" stroke-width="28" stroke-opacity="1" stroke-miterlimit="4"/></g><path stroke-linecap="round" transform="matrix(-0.633851, 0, 0, 0.633851, 587.166966, -98.610939)" fill="none" stroke-linejoin="round" d="M 765.692855 358.211095 C 755.937255 341.775097 744.603996 326.522342 731.693078 312.440506 C 682.03997 258.300931 611.199399 224.442898 532.550651 224.442898 C 395.86132 224.442898 282.738265 326.750363 263.547526 459.95159 C 261.390571 475.044113 260.459999 490.210589 260.75581 505.457181 C 261.045458 520.69761 262.567653 535.820947 265.310067 550.82103 C 266.752146 558.672347 268.514686 566.400409 270.610014 574.011379 C 302.502137 690.258938 407.669109 775.581922 532.501349 775.581922 C 611.150098 775.581922 681.990668 741.711563 731.637614 687.578151 C 744.554694 673.496315 755.887953 658.243561 765.63739 641.807562 " stroke="#000000" stroke-width="28" stroke-opacity="1" stroke-miterlimit="4"/><path stroke-linecap="round" transform="matrix(-0.633851, 0, 0, 0.633851, 587.166966, -98.610939)" fill="none" stroke-linejoin="round" d="M 765.692855 358.211095 L 766.087269 358.211095 C 799.680306 358.211095 826.907243 421.687205 826.907243 500.009329 C 826.907243 578.331453 799.680306 641.807562 766.087269 641.807562 L 765.692855 641.807562 C 732.290863 641.302218 705.279622 577.998665 705.279622 499.997003 C 705.279622 422.001504 732.290863 358.697951 765.692855 358.211095 Z M 765.692855 358.211095 " stroke="#000000" stroke-width="28" stroke-opacity="1" stroke-miterlimit="4"/><g clip-path="url(#a5657fe90c)"><path stroke-linecap="round" transform="matrix(-0.633851, 0, 0, 0.633851, 587.166966, -98.610939)" fill="none" stroke-linejoin="round" d="M 778.998187 285.607984 C 782.936171 284.905433 786.911131 284.554157 790.910742 284.56032 C 857.221707 284.56032 910.997681 381.000867 910.997681 499.997003 C 910.997681 618.999302 857.221707 715.439849 790.867603 715.439849 C 786.880317 715.439849 782.923845 715.088574 778.998187 714.392185 " stroke="#000000" stroke-width="28" stroke-opacity="1" stroke-miterlimit="4"/></g><path stroke-linecap="round" transform="matrix(-0.633851, 0, 0, 0.633851, 587.166966, -98.610939)" fill="none" stroke-linejoin="round" d="M 242.507969 648.192149 L 111.821136 754.19109 C 102.632507 761.660317 89.000551 754.998407 89.000551 743.079689 L 89.000551 608.442547 C 88.994388 606.285592 89.456593 604.233403 90.381002 602.285981 C 91.299249 600.338558 92.599584 598.680784 94.269684 597.318821 L 208.002849 505.099743 " stroke="#000000" stroke-width="28" stroke-opacity="1" stroke-miterlimit="4"/><path stroke-linecap="round" transform="matrix(-0.633851, 0, 0, 0.633851, 587.166966, -98.610939)" fill="none" stroke-linejoin="round" d="M 415.452636 385.382568 C 409.561067 389.332877 400.748364 395.181307 389.938937 402.132865 C 352.580473 426.179834 352.740704 424.072181 346.380768 429.538522 C 343.897188 431.670826 341.59849 433.981849 339.478511 436.471592 C 323.547857 455.471286 328.81699 475.722013 308.837422 507.182745 C 306.249076 511.268635 303.445035 515.206619 300.43146 519.00286 " stroke="#000000" stroke-width="28" stroke-opacity="1" stroke-miterlimit="4"/><path stroke-linecap="round" transform="matrix(-0.633851, 0, 0, 0.633851, 587.166966, -98.610939)" fill="none" stroke-linejoin="round" d="M 89.000551 675.751874 L 265.402508 550.808705 L 265.759946 550.562195 C 275.737405 543.881797 284.845918 536.178386 293.09165 527.451961 C 295.137676 525.25803 297.029634 523.1134 298.76136 521.018072 " stroke="#000000" stroke-width="28" stroke-opacity="1" stroke-miterlimit="4"/><path stroke-linecap="round" transform="matrix(-0.633851, 0, 0, 0.633851, 587.166966, -98.610939)" fill="none" stroke-linejoin="round" d="M 339.478511 436.471592 C 353.732904 442.449439 368.548105 446.233355 383.917951 447.817176 C 399.380238 449.382509 424.037317 451.903065 450.000895 440.187717 C 481.658834 425.921 491.377458 401.189968 507.061603 405.189579 C 517.852542 407.90118 523.571555 422.192549 526.572804 432.589073 " stroke="#000000" stroke-width="28" stroke-opacity="1" stroke-miterlimit="4"/><path stroke-linecap="round" transform="matrix(-0.633851, 0, 0, 0.633851, 587.166966, -98.610939)" fill="none" stroke-linejoin="round" d="M 300.43146 519.00286 C 316.189558 538.71743 327.060612 541.922049 334.369609 540.720317 C 344.790784 539.000916 347.009366 528.462649 364.369774 516.359049 C 372.812713 510.492131 380.472985 507.269024 407.909455 499.608751 C 425.547186 494.690893 448.361609 488.768511 475.489942 482.858454 " stroke="#000000" stroke-width="28" stroke-opacity="1" stroke-miterlimit="4"/><path stroke-linecap="round" transform="matrix(-0.633851, 0, 0, 0.633851, 587.166966, -98.610939)" fill="none" stroke-linejoin="round" d="M 501.410381 559.689197 C 512.780616 574.68928 507.03079 595.032448 520.582631 607.690694 C 526.418735 613.150872 537.332929 618.549423 559.580381 615.320153 " stroke="#000000" stroke-width="28" stroke-opacity="1" stroke-miterlimit="4"/><path stroke-linecap="round" transform="matrix(-0.633851, 0, 0, 0.633851, 587.166966, -98.610939)" fill="none" stroke-linejoin="round" d="M 563.832664 563.522415 C 538.830472 558.037586 518.049749 557.760263 501.410381 559.689197 C 492.517563 560.693722 483.791138 562.480913 475.218782 565.050771 C 436.066964 576.759957 425.300677 597.251031 389.630801 598.539041 C 362.699675 599.537403 344.439508 595.698023 323.560182 575.699967 C 306.797559 559.652221 300.560877 538.951614 298.767523 521.011909 " stroke="#000000" stroke-width="28" stroke-opacity="1" stroke-miterlimit="4"/></g></g></g><g clip-path="url(#abb43d2d91)"><path fill="#150e26" d="M 119.25 233.015625 C 120.617188 233.085938 121.917969 233.238281 123.25 233.550781 L 123.757812 233.671875 C 127.761719 234.65625 131.210938 236.84375 134.1875 239.660156 C 136.042969 241.589844 137.566406 243.894531 138.589844 246.363281 L 138.820312 246.886719 C 139.335938 248.121094 139.652344 249.378906 139.921875 250.691406 C 139.953125 250.847656 139.984375 251.003906 140.019531 251.167969 C 140.210938 252.164062 140.238281 252.957031 140.238281 254.007812 L 132.292969 254.007812 L 131.695312 251.007812 C 131.078125 249.257812 130.332031 247.648438 129.144531 246.210938 L 128.914062 245.921875 C 127.378906 244.085938 125.359375 242.734375 123.125 241.90625 C 122.070312 241.539062 120.976562 241.335938 119.871094 241.1875 L 119.398438 241.113281 L 119.25 240.964844 C 119.234375 240.714844 119.230469 240.464844 119.230469 240.21875 L 119.230469 239.734375 L 119.234375 239.210938 L 119.234375 238.675781 C 119.234375 238.113281 119.238281 237.546875 119.238281 236.980469 C 119.242188 236.597656 119.242188 236.21875 119.242188 235.835938 C 119.242188 234.894531 119.246094 233.957031 119.25 233.015625 M 132.292969 255.957031 L 140.390625 255.957031 C 139.925781 259.6875 139.230469 263.277344 137.089844 266.453125 L 136.839844 266.835938 C 134.519531 270.265625 131.582031 272.753906 127.925781 274.671875 C 127.683594 274.785156 127.441406 274.894531 127.195312 275 C 127.03125 275.070312 126.863281 275.144531 126.695312 275.214844 C 125.507812 275.707031 124.304688 276.042969 123.054688 276.320312 L 122.636719 276.414062 C 121.488281 276.65625 120.449219 276.714844 119.25 276.796875 L 119.25 268.851562 L 121.046875 268.476562 C 123.679688 267.890625 125.757812 266.832031 127.804688 265.066406 C 129.601562 263.402344 130.761719 261.476562 131.640625 259.21875 C 131.945312 258.152344 132.101562 257.046875 132.292969 255.957031 M 142.339844 255.808594 L 150.136719 255.808594 C 150.394531 256.453125 150.527344 257.015625 150.632812 257.691406 C 150.824219 258.789062 151.152344 259.75 151.636719 260.753906 L 151.78125 261.078125 C 152.730469 263.125 154.320312 264.84375 156.132812 266.152344 C 158.132812 267.546875 160.171875 268.300781 162.574219 268.632812 L 163.03125 268.703125 L 163.179688 268.851562 C 163.195312 269.101562 163.199219 269.347656 163.199219 269.597656 L 163.199219 270.082031 L 163.195312 270.605469 L 163.195312 271.136719 C 163.195312 271.703125 163.191406 272.269531 163.191406 272.835938 C 163.1875 273.21875 163.1875 273.597656 163.1875 273.980469 C 163.1875 274.921875 163.183594 275.859375 163.179688 276.796875 C 160.226562 276.5 160.226562 276.5 158.90625 276.171875 L 158.511719 276.074219 C 154.582031 275.0625 151.40625 272.976562 148.488281 270.203125 L 148.199219 269.941406 C 145.890625 267.800781 144.21875 264.605469 143.238281 261.65625 C 142.65625 259.671875 142.339844 257.894531 142.339844 255.808594 M 163.179688 233.015625 L 163.179688 240.964844 C 161.980469 241.265625 161.980469 241.265625 161.394531 241.382812 C 159.117188 241.84375 157.007812 242.734375 155.234375 244.261719 C 153.34375 245.933594 151.910156 247.871094 151.035156 250.261719 C 150.6875 251.445312 150.460938 252.636719 150.285156 253.859375 L 142.1875 253.859375 C 142.539062 250.359375 142.539062 250.359375 142.957031 248.957031 L 143.097656 248.480469 C 143.511719 247.105469 144.050781 245.824219 144.738281 244.5625 L 144.972656 244.132812 C 146.773438 241.003906 149.464844 238.203125 152.535156 236.316406 L 153.027344 236.011719 C 156.046875 234.210938 159.636719 233.015625 163.179688 233.015625 " fill-opacity="1" fill-rule="nonzero"/></g><g clip-path="url(#8dce2841f4)"><path fill="#160f27" d="M 382.449219 567.117188 C 382.753906 567.113281 383.0625 567.113281 383.367188 567.113281 C 383.472656 567.113281 383.574219 567.113281 383.679688 567.109375 C 383.828125 567.109375 383.976562 567.109375 384.128906 567.109375 L 384.269531 567.109375 C 384.382812 567.109375 384.492188 567.113281 384.605469 567.117188 L 384.667969 567.175781 C 384.695312 567.351562 384.722656 567.523438 384.746094 567.699219 L 384.769531 567.863281 C 384.796875 568.039062 384.820312 568.210938 384.84375 568.386719 L 384.894531 568.746094 C 384.988281 569.40625 385.078125 570.066406 385.164062 570.726562 C 385.207031 571.078125 385.257812 571.425781 385.3125 571.777344 C 385.425781 572.535156 385.53125 573.296875 385.632812 574.058594 L 385.699219 574.550781 C 385.808594 575.339844 385.914062 576.128906 386.023438 576.917969 L 386.394531 576.917969 L 386.410156 576.8125 C 386.535156 576.070312 386.671875 575.332031 386.820312 574.59375 C 386.9375 574.011719 387.050781 573.425781 387.160156 572.839844 C 387.339844 571.882812 387.523438 570.925781 387.710938 569.96875 C 387.746094 569.78125 387.78125 569.597656 387.816406 569.410156 C 387.914062 568.898438 388.011719 568.417969 388.304688 567.980469 L 388.375 567.863281 C 388.578125 567.578125 388.859375 567.40625 389.167969 567.25 C 389.597656 567.058594 390.054688 567.054688 390.515625 567.09375 C 390.902344 567.160156 391.214844 567.328125 391.515625 567.570312 C 391.890625 567.894531 392.0625 568.210938 392.238281 568.679688 C 392.355469 569.042969 392.417969 569.410156 392.480469 569.789062 C 392.511719 569.96875 392.542969 570.152344 392.574219 570.332031 L 392.597656 570.476562 C 392.695312 571.039062 392.804688 571.601562 392.914062 572.164062 C 392.984375 572.535156 393.054688 572.902344 393.128906 573.273438 C 393.246094 573.894531 393.363281 574.515625 393.480469 575.136719 L 393.542969 575.480469 C 393.574219 575.640625 393.605469 575.800781 393.632812 575.960938 L 393.660156 576.097656 C 393.714844 576.390625 393.753906 576.683594 393.789062 576.980469 L 394.160156 576.917969 C 394.285156 576.078125 394.410156 575.234375 394.523438 574.394531 L 394.574219 574.039062 C 394.605469 573.808594 394.636719 573.578125 394.671875 573.347656 C 394.707031 573.085938 394.742188 572.824219 394.78125 572.5625 C 394.871094 571.894531 394.960938 571.230469 395.050781 570.5625 L 395.074219 570.378906 C 395.117188 570.078125 395.15625 569.777344 395.195312 569.476562 C 395.269531 568.910156 395.347656 568.34375 395.429688 567.777344 L 395.453125 567.621094 C 395.507812 567.253906 395.507812 567.253906 395.578125 567.117188 L 397.734375 567.117188 C 397.695312 567.59375 397.660156 568.039062 397.570312 568.507812 C 397.417969 569.355469 397.285156 570.207031 397.152344 571.058594 L 397.070312 571.5625 C 397.015625 571.914062 396.957031 572.265625 396.898438 572.613281 C 396.835938 572.984375 396.777344 573.351562 396.722656 573.722656 C 396.445312 575.523438 396.445312 575.523438 396.285156 576.378906 L 396.253906 576.558594 C 396.171875 576.976562 396.015625 577.3125 395.761719 577.65625 C 395.476562 577.957031 395.164062 578.183594 394.773438 578.335938 C 394.328125 578.460938 393.78125 578.445312 393.320312 578.371094 C 392.925781 578.238281 392.589844 577.949219 392.308594 577.648438 C 391.863281 577.109375 391.773438 576.496094 391.648438 575.824219 L 391.601562 575.570312 C 391.566406 575.394531 391.53125 575.214844 391.5 575.035156 C 391.445312 574.761719 391.394531 574.484375 391.34375 574.207031 C 391.203125 573.480469 391.066406 572.757812 390.929688 572.03125 C 390.886719 571.785156 390.839844 571.539062 390.792969 571.292969 L 390.765625 571.148438 C 390.636719 570.464844 390.503906 569.78125 390.363281 569.097656 L 390.328125 568.925781 L 390.296875 568.777344 C 390.277344 568.65625 390.277344 568.65625 390.277344 568.535156 L 389.90625 568.535156 L 389.886719 568.660156 C 389.6875 569.863281 389.480469 571.066406 389.234375 572.261719 C 389.144531 572.710938 389.058594 573.164062 388.972656 573.617188 L 388.9375 573.8125 C 388.890625 574.074219 388.839844 574.332031 388.792969 574.59375 C 388.671875 575.261719 388.542969 575.925781 388.394531 576.582031 L 388.355469 576.742188 C 388.269531 577.121094 388.144531 577.40625 387.890625 577.707031 C 387.546875 578.03125 387.160156 578.277344 386.703125 578.398438 C 386.285156 578.441406 385.785156 578.464844 385.382812 578.335938 C 385.277344 578.285156 385.277344 578.285156 385.160156 578.210938 L 384.992188 578.109375 C 384.601562 577.847656 384.324219 577.585938 384.113281 577.164062 C 383.894531 576.554688 383.824219 575.894531 383.722656 575.261719 L 383.667969 574.90625 C 383.628906 574.664062 383.589844 574.421875 383.550781 574.183594 C 383.480469 573.722656 383.40625 573.265625 383.332031 572.808594 L 383.261719 572.386719 C 383.15625 571.730469 383.046875 571.074219 382.9375 570.417969 L 382.914062 570.277344 C 382.839844 569.828125 382.765625 569.378906 382.6875 568.929688 C 382.660156 568.757812 382.628906 568.585938 382.601562 568.417969 C 382.578125 568.296875 382.558594 568.179688 382.539062 568.0625 L 382.503906 567.847656 L 382.472656 567.664062 C 382.449219 567.476562 382.445312 567.300781 382.449219 567.117188 M 331.183594 567.433594 C 331.609375 567.625 331.976562 567.867188 332.339844 568.164062 L 332.457031 568.25 C 333.125 568.769531 333.507812 569.558594 333.835938 570.316406 C 334.222656 571.3125 334.128906 572.265625 334.128906 573.339844 L 325.808594 573.339844 C 325.914062 574.144531 325.996094 574.710938 326.472656 575.335938 C 326.925781 575.863281 327.445312 576.125 328.085938 576.363281 C 328.308594 576.414062 328.511719 576.433594 328.738281 576.433594 L 329.410156 576.433594 C 329.628906 576.4375 329.84375 576.4375 330.058594 576.4375 C 330.195312 576.4375 330.332031 576.4375 330.464844 576.4375 C 330.890625 576.4375 331.3125 576.4375 331.738281 576.4375 C 332.226562 576.4375 332.714844 576.441406 333.203125 576.441406 C 333.578125 576.441406 333.957031 576.445312 334.335938 576.445312 C 334.5625 576.445312 334.785156 576.445312 335.011719 576.445312 C 335.265625 576.445312 335.515625 576.445312 335.769531 576.445312 L 335.992188 576.449219 C 336.65625 576.445312 337.214844 576.304688 337.792969 575.972656 C 338.308594 575.636719 338.640625 575.195312 338.996094 574.699219 L 339.261719 574.335938 C 339.425781 574.109375 339.585938 573.882812 339.734375 573.648438 C 339.820312 573.753906 339.902344 573.855469 339.984375 573.957031 L 340.074219 574.074219 C 340.191406 574.21875 340.304688 574.367188 340.414062 574.511719 L 340.488281 574.613281 C 340.570312 574.714844 340.648438 574.824219 340.726562 574.929688 L 340.804688 575.03125 C 340.875 575.128906 340.875 575.128906 340.96875 575.3125 C 340.925781 575.570312 340.746094 575.765625 340.585938 575.964844 L 340.390625 576.207031 C 340.203125 576.4375 340.011719 576.652344 339.796875 576.855469 L 339.625 577.019531 C 338.980469 577.628906 338.371094 578.035156 337.5 578.265625 C 336.625 578.445312 335.742188 578.421875 334.855469 578.417969 C 334.621094 578.417969 334.386719 578.417969 334.15625 578.417969 C 333.765625 578.417969 333.375 578.417969 332.980469 578.417969 C 332.53125 578.414062 332.082031 578.414062 331.632812 578.417969 C 331.195312 578.417969 330.757812 578.417969 330.324219 578.414062 C 330.140625 578.414062 329.953125 578.414062 329.769531 578.414062 C 329.554688 578.414062 329.335938 578.414062 329.117188 578.414062 C 329 578.414062 328.886719 578.414062 328.769531 578.414062 C 328.089844 578.410156 327.460938 578.320312 326.824219 578.082031 L 326.671875 578.023438 C 325.890625 577.71875 325.214844 577.207031 324.679688 576.5625 C 324.554688 576.394531 324.4375 576.226562 324.328125 576.054688 L 324.242188 575.925781 C 324.0625 575.628906 323.941406 575.3125 323.824219 574.992188 L 323.777344 574.867188 C 323.390625 573.761719 323.398438 572.371094 323.59375 571.226562 C 323.78125 570.351562 324.148438 569.605469 324.699219 568.902344 L 324.808594 568.761719 C 325.347656 568.105469 326.0625 567.652344 326.847656 567.347656 L 326.964844 567.300781 C 328.257812 566.824219 329.925781 566.90625 331.183594 567.433594 M 327.039062 569.457031 C 326.550781 569.820312 326.21875 570.246094 325.976562 570.804688 C 325.734375 571.453125 325.726562 572.101562 325.746094 572.785156 C 325.949219 572.800781 325.949219 572.800781 326.175781 572.785156 C 326.308594 572.71875 326.308594 572.71875 326.410156 572.609375 L 326.53125 572.496094 C 326.671875 572.359375 326.671875 572.359375 326.792969 572.199219 C 326.945312 572.011719 327.085938 571.875 327.285156 571.738281 C 327.644531 571.652344 327.992188 571.660156 328.359375 571.664062 C 328.460938 571.664062 328.5625 571.664062 328.664062 571.664062 C 328.933594 571.664062 329.203125 571.664062 329.472656 571.667969 C 329.746094 571.671875 330.019531 571.667969 330.296875 571.667969 C 330.832031 571.667969 331.371094 571.671875 331.910156 571.675781 C 331.902344 571.570312 331.894531 571.464844 331.882812 571.355469 L 331.871094 571.175781 C 331.8125 570.75 331.582031 570.371094 331.335938 570.023438 C 330.972656 569.5625 330.554688 569.316406 330.019531 569.097656 C 329.050781 568.769531 327.902344 568.921875 327.039062 569.457031 M 349.90625 563.726562 L 352.125 563.726562 L 352.1875 566.992188 L 355.269531 567.054688 L 355.269531 568.902344 L 354.527344 568.90625 C 353.722656 568.910156 352.914062 568.914062 352.105469 568.917969 C 351.617188 568.921875 351.128906 568.921875 350.636719 568.925781 C 350.210938 568.925781 349.785156 568.929688 349.355469 568.929688 C 349.132812 568.933594 348.90625 568.933594 348.679688 568.933594 C 348.425781 568.933594 348.175781 568.9375 347.921875 568.9375 L 347.699219 568.9375 C 347 568.945312 346.308594 569.050781 345.6875 569.386719 L 345.5625 569.449219 C 345.085938 569.707031 344.792969 569.984375 344.492188 570.433594 C 344.320312 570.6875 344.140625 570.929688 343.960938 571.175781 C 343.402344 571.921875 343.402344 571.921875 342.941406 572.726562 C 343.363281 573.347656 343.792969 573.960938 344.234375 574.566406 C 344.347656 574.71875 344.453125 574.871094 344.558594 575.023438 C 344.882812 575.5 345.230469 575.84375 345.75 576.101562 C 346.164062 576.289062 346.546875 576.421875 347 576.445312 L 347.148438 576.449219 L 347.335938 576.457031 L 347.933594 576.484375 L 347.933594 578.398438 C 346.839844 578.417969 345.789062 578.40625 344.789062 577.902344 C 344.550781 577.753906 344.332031 577.585938 344.113281 577.410156 L 343.9375 577.273438 C 343.585938 576.992188 343.230469 576.707031 342.941406 576.363281 L 342.941406 576.238281 L 342.757812 576.175781 L 342.757812 575.992188 L 342.652344 575.953125 C 342.457031 575.835938 342.351562 575.675781 342.226562 575.492188 L 342.148438 575.375 C 342.0625 575.253906 341.976562 575.128906 341.894531 575.007812 L 341.726562 574.765625 C 341.644531 574.644531 341.5625 574.523438 341.476562 574.402344 C 341.175781 573.960938 340.863281 573.523438 340.554688 573.085938 C 340.453125 572.941406 340.351562 572.796875 340.253906 572.652344 C 340.109375 572.445312 339.960938 572.238281 339.8125 572.035156 C 339.425781 571.488281 339.425781 571.488281 339.242188 571.214844 C 339.179688 571.121094 339.121094 571.03125 339.058594 570.9375 L 338.992188 570.839844 C 338.464844 570.042969 338.464844 570.042969 337.71875 569.460938 C 337.300781 569.257812 336.890625 569.089844 336.421875 569.070312 L 336.273438 569.0625 L 336.085938 569.054688 L 335.484375 569.027344 L 335.484375 567.117188 C 336.574219 567.09375 337.5 567.128906 338.503906 567.609375 C 339.792969 568.359375 340.714844 569.4375 341.511719 570.679688 C 341.585938 570.8125 341.585938 570.8125 341.585938 570.9375 C 341.734375 570.875 341.824219 570.824219 341.929688 570.699219 L 342.027344 570.558594 L 342.132812 570.410156 L 342.238281 570.25 C 342.3125 570.148438 342.382812 570.046875 342.453125 569.941406 L 342.550781 569.804688 L 342.632812 569.703125 L 342.757812 569.703125 L 342.804688 569.566406 C 342.886719 569.382812 342.972656 569.277344 343.117188 569.136719 L 343.410156 568.84375 L 343.558594 568.699219 C 344.179688 568.082031 344.902344 567.554688 345.742188 567.277344 C 346.671875 567.03125 347.589844 567.039062 348.546875 567.046875 L 349.90625 567.054688 Z M 375.050781 567.105469 C 375.191406 567.105469 375.328125 567.101562 375.464844 567.101562 C 375.933594 567.101562 376.382812 567.113281 376.839844 567.238281 L 376.976562 567.277344 C 377.980469 567.558594 378.761719 568.035156 379.488281 568.78125 C 380.160156 569.515625 380.550781 570.34375 380.785156 571.308594 C 380.863281 571.742188 380.859375 572.175781 380.859375 572.613281 C 380.859375 572.738281 380.859375 572.867188 380.859375 572.992188 C 380.863281 573.679688 380.792969 574.328125 380.558594 574.976562 L 380.507812 575.109375 C 380.214844 575.886719 379.753906 576.589844 379.121094 577.136719 C 378.941406 577.273438 378.753906 577.40625 378.566406 577.535156 L 378.417969 577.636719 C 378.113281 577.832031 377.796875 577.972656 377.464844 578.105469 L 377.347656 578.148438 C 376.675781 578.398438 375.988281 578.417969 375.28125 578.414062 L 375.039062 578.417969 C 374.046875 578.417969 373.082031 578.214844 372.207031 577.734375 C 372.042969 577.632812 371.882812 577.523438 371.722656 577.410156 L 371.59375 577.324219 C 370.945312 576.882812 370.472656 576.148438 370.117188 575.460938 C 369.601562 574.285156 369.515625 572.976562 369.644531 571.707031 C 369.679688 571.445312 369.742188 571.191406 369.8125 570.9375 L 369.863281 570.734375 C 370.085938 569.902344 370.597656 569.1875 371.175781 568.5625 C 371.769531 567.988281 372.492188 567.605469 373.273438 567.351562 L 373.417969 567.300781 C 373.964844 567.121094 374.480469 567.105469 375.050781 567.105469 M 373.398438 569.488281 C 372.917969 569.828125 372.496094 570.230469 372.21875 570.753906 C 371.832031 571.671875 371.742188 572.632812 371.867188 573.621094 C 371.972656 574.203125 372.160156 574.757812 372.527344 575.230469 C 372.988281 575.761719 373.46875 576.117188 374.128906 576.363281 C 374.726562 576.554688 375.4375 576.546875 376.054688 576.441406 C 376.652344 576.296875 377.148438 576.054688 377.613281 575.648438 C 378.097656 575.171875 378.355469 574.597656 378.566406 573.957031 C 378.644531 573.566406 378.640625 573.179688 378.644531 572.777344 L 378.644531 572.5625 C 378.648438 571.808594 378.480469 571.179688 378.125 570.519531 C 377.835938 570.023438 377.460938 569.679688 376.964844 569.398438 C 375.832031 568.882812 374.488281 568.820312 373.398438 569.488281 M 311.015625 567.054688 L 313.171875 567.054688 L 313.171875 568.839844 L 313.601562 568.78125 C 313.710938 568.675781 313.710938 568.675781 313.773438 568.539062 C 314.042969 568.09375 314.402344 567.75 314.855469 567.492188 C 315.707031 567.085938 316.570312 567.019531 317.507812 567.0625 C 318.207031 567.128906 318.871094 567.34375 319.460938 567.730469 C 319.609375 567.847656 319.753906 567.972656 319.890625 568.101562 C 319.929688 568.136719 319.96875 568.171875 320.007812 568.207031 C 320.539062 568.703125 320.875 569.300781 321.085938 569.988281 C 321.3125 570.875 321.261719 571.796875 321.257812 572.703125 L 321.257812 573.195312 C 321.257812 573.582031 321.257812 573.96875 321.253906 574.355469 C 321.253906 574.796875 321.253906 575.238281 321.253906 575.679688 C 321.25 576.585938 321.25 577.492188 321.246094 578.398438 L 319.027344 578.398438 L 319.023438 577.734375 C 319.019531 577.011719 319.015625 576.285156 319.011719 575.5625 C 319.007812 575.125 319.007812 574.683594 319.003906 574.246094 C 319.003906 573.863281 319.003906 573.480469 319 573.097656 C 318.996094 572.894531 318.996094 572.695312 318.996094 572.492188 C 318.996094 572.265625 318.992188 572.039062 318.992188 571.8125 L 318.992188 571.609375 C 318.984375 571.066406 318.886719 570.578125 318.644531 570.089844 C 318.449219 569.757812 318.183594 569.519531 317.851562 569.320312 C 317.355469 569.058594 316.910156 569.003906 316.355469 569.007812 L 316.167969 569.003906 C 315.773438 569.003906 315.449219 569.058594 315.082031 569.210938 C 315.039062 569.230469 314.996094 569.246094 314.953125 569.265625 C 314.515625 569.449219 314.167969 569.789062 313.859375 570.140625 C 313.496094 570.636719 313.367188 571.261719 313.296875 571.863281 C 313.285156 572.078125 313.285156 572.292969 313.28125 572.511719 L 313.28125 572.703125 C 313.277344 572.914062 313.277344 573.125 313.277344 573.332031 L 313.273438 573.769531 C 313.269531 574.15625 313.265625 574.539062 313.261719 574.921875 C 313.257812 575.3125 313.253906 575.703125 313.253906 576.09375 C 313.246094 576.863281 313.238281 577.628906 313.234375 578.398438 L 311.015625 578.398438 Z M 360.054688 563.761719 C 360.136719 563.761719 360.222656 563.765625 360.308594 563.765625 C 360.527344 563.765625 360.75 563.765625 360.96875 563.769531 C 361.195312 563.773438 361.421875 563.773438 361.648438 563.773438 C 362.089844 563.777344 362.53125 563.78125 362.972656 563.785156 L 362.972656 565.636719 L 362.347656 565.640625 C 362.148438 565.644531 361.949219 565.644531 361.75 565.648438 C 361.609375 565.652344 361.46875 565.652344 361.332031 565.652344 C 361.132812 565.652344 360.933594 565.65625 360.734375 565.660156 L 360.546875 565.660156 C 360.382812 565.664062 360.234375 565.671875 360.074219 565.699219 C 359.910156 565.796875 359.910156 565.796875 359.828125 565.945312 C 359.730469 566.175781 359.753906 566.441406 359.746094 566.6875 L 359.742188 566.832031 C 359.738281 566.984375 359.734375 567.132812 359.734375 567.285156 L 359.722656 567.59375 C 359.71875 567.84375 359.710938 568.097656 359.707031 568.347656 C 359.878906 568.335938 360.03125 568.328125 360.199219 568.285156 C 360.34375 568.175781 360.34375 568.175781 360.445312 568.023438 C 361 567.34375 361 567.34375 361.371094 567.117188 C 361.910156 566.972656 362.417969 567.058594 362.972656 567.117188 L 362.972656 568.964844 L 359.707031 568.964844 L 359.707031 578.398438 L 357.546875 578.398438 C 357.539062 576.699219 357.535156 575 357.527344 573.300781 C 357.527344 572.511719 357.523438 571.722656 357.519531 570.933594 C 357.515625 570.246094 357.515625 569.554688 357.511719 568.867188 C 357.511719 568.503906 357.511719 568.140625 357.507812 567.777344 C 357.507812 567.433594 357.507812 567.089844 357.507812 566.746094 C 357.507812 566.621094 357.503906 566.496094 357.503906 566.371094 C 357.492188 565.308594 357.492188 565.308594 357.71875 564.832031 C 357.910156 564.503906 358.148438 564.230469 358.472656 564.035156 C 359 563.785156 359.476562 563.753906 360.054688 563.761719 " fill-opacity="1" fill-rule="nonzero"/></g><g clip-path="url(#dcffc3b036)"><path fill="#0dc09d" d="M 287.222656 563.726562 C 287.785156 563.753906 288.320312 563.816406 288.867188 563.945312 L 289.078125 563.992188 C 290.722656 564.398438 292.140625 565.296875 293.363281 566.457031 C 294.128906 567.25 294.753906 568.199219 295.175781 569.210938 L 295.269531 569.425781 C 295.480469 569.9375 295.613281 570.453125 295.722656 570.992188 C 295.734375 571.054688 295.75 571.121094 295.761719 571.1875 C 295.839844 571.597656 295.851562 571.921875 295.851562 572.355469 L 292.585938 572.355469 L 292.339844 571.121094 C 292.085938 570.402344 291.78125 569.742188 291.292969 569.148438 L 291.195312 569.03125 C 290.566406 568.277344 289.734375 567.722656 288.816406 567.378906 C 288.382812 567.230469 287.933594 567.144531 287.480469 567.085938 L 287.285156 567.054688 L 287.222656 566.992188 C 287.21875 566.890625 287.214844 566.789062 287.21875 566.683594 L 287.21875 566.050781 C 287.21875 565.820312 287.21875 565.585938 287.21875 565.355469 C 287.21875 565.199219 287.21875 565.039062 287.222656 564.882812 C 287.222656 564.496094 287.222656 564.113281 287.222656 563.726562 M 292.585938 573.15625 L 295.914062 573.15625 C 295.722656 574.691406 295.4375 576.167969 294.558594 577.472656 L 294.457031 577.628906 C 293.5 579.039062 292.292969 580.0625 290.789062 580.851562 C 290.691406 580.898438 290.589844 580.941406 290.492188 580.984375 C 290.421875 581.015625 290.355469 581.042969 290.285156 581.074219 C 289.796875 581.277344 289.300781 581.414062 288.789062 581.527344 L 288.617188 581.566406 C 288.144531 581.667969 287.714844 581.691406 287.222656 581.726562 L 287.222656 578.457031 L 287.964844 578.304688 C 289.046875 578.0625 289.898438 577.628906 290.742188 576.902344 C 291.480469 576.21875 291.957031 575.425781 292.316406 574.496094 C 292.441406 574.058594 292.507812 573.605469 292.585938 573.15625 M 296.714844 573.09375 L 299.921875 573.09375 C 300.027344 573.359375 300.082031 573.59375 300.125 573.871094 C 300.203125 574.320312 300.339844 574.714844 300.535156 575.128906 L 300.597656 575.261719 C 300.988281 576.105469 301.640625 576.808594 302.386719 577.347656 C 303.207031 577.921875 304.046875 578.230469 305.035156 578.367188 L 305.222656 578.398438 L 305.28125 578.457031 C 305.289062 578.558594 305.289062 578.664062 305.289062 578.765625 L 305.289062 579.398438 C 305.289062 579.628906 305.289062 579.863281 305.285156 580.09375 C 305.285156 580.253906 305.285156 580.410156 305.285156 580.566406 C 305.285156 580.953125 305.285156 581.339844 305.28125 581.726562 C 304.066406 581.601562 304.066406 581.601562 303.527344 581.46875 L 303.363281 581.425781 C 301.746094 581.011719 300.441406 580.152344 299.242188 579.011719 L 299.125 578.90625 C 298.175781 578.027344 297.488281 576.710938 297.085938 575.5 C 296.847656 574.683594 296.714844 573.953125 296.714844 573.09375 M 305.28125 563.726562 L 305.28125 566.992188 C 304.789062 567.117188 304.789062 567.117188 304.550781 567.164062 C 303.613281 567.355469 302.746094 567.71875 302.015625 568.347656 C 301.238281 569.035156 300.648438 569.832031 300.289062 570.8125 C 300.148438 571.300781 300.054688 571.792969 299.980469 572.292969 L 296.652344 572.292969 C 296.796875 570.855469 296.796875 570.855469 296.96875 570.277344 L 297.027344 570.082031 C 297.195312 569.515625 297.417969 568.992188 297.703125 568.472656 L 297.796875 568.292969 C 298.539062 567.007812 299.644531 565.855469 300.90625 565.082031 L 301.109375 564.957031 C 302.351562 564.214844 303.824219 563.726562 305.28125 563.726562 " fill-opacity="1" fill-rule="nonzero"/></g><g clip-path="url(#bad0eec5c6)"><path fill="#150e26" d="M 365.253906 563.785156 L 367.410156 563.785156 L 367.410156 578.398438 L 365.191406 578.398438 C 365.1875 576.324219 365.1875 574.253906 365.1875 572.183594 L 365.1875 572.050781 C 365.1875 571.347656 365.1875 570.640625 365.1875 569.9375 C 365.1875 569.214844 365.183594 568.492188 365.183594 567.769531 C 365.183594 567.363281 365.183594 566.957031 365.183594 566.550781 C 365.183594 566.167969 365.183594 565.785156 365.183594 565.402344 C 365.183594 565.261719 365.183594 565.121094 365.183594 564.980469 C 365.183594 564.789062 365.183594 564.597656 365.183594 564.410156 L 365.183594 564.238281 C 365.183594 564.109375 365.1875 563.976562 365.191406 563.847656 Z M 365.253906 563.785156 " fill-opacity="1" fill-rule="nonzero"/></g><path fill="#160f27" d="M 349.96875 569.890625 C 350.128906 569.882812 350.285156 569.882812 350.445312 569.882812 L 350.589844 569.882812 C 350.742188 569.882812 350.898438 569.886719 351.050781 569.886719 C 351.152344 569.886719 351.257812 569.886719 351.359375 569.886719 C 351.617188 569.886719 351.871094 569.886719 352.125 569.890625 L 352.125 570.121094 C 352.128906 570.839844 352.132812 571.5625 352.140625 572.28125 C 352.140625 572.652344 352.144531 573.023438 352.144531 573.390625 C 352.148438 573.75 352.148438 574.105469 352.152344 574.464844 C 352.152344 574.601562 352.15625 574.738281 352.15625 574.875 C 352.15625 575.0625 352.15625 575.253906 352.160156 575.445312 L 352.160156 575.617188 C 352.164062 575.863281 352.179688 576.039062 352.269531 576.273438 L 352.371094 576.425781 C 352.535156 576.480469 352.636719 576.496094 352.804688 576.5 L 352.953125 576.5 L 353.113281 576.503906 L 353.277344 576.507812 C 353.453125 576.511719 353.625 576.515625 353.800781 576.519531 L 354.152344 576.527344 C 354.441406 576.535156 354.730469 576.542969 355.019531 576.546875 L 355.019531 578.398438 C 354.542969 578.402344 354.0625 578.40625 353.582031 578.40625 C 353.417969 578.40625 353.253906 578.410156 353.089844 578.410156 C 352.855469 578.414062 352.621094 578.414062 352.386719 578.414062 C 352.3125 578.414062 352.242188 578.417969 352.164062 578.417969 C 351.683594 578.417969 351.238281 578.375 350.8125 578.128906 C 350.484375 577.910156 350.269531 577.636719 350.089844 577.285156 C 349.804688 576.578125 349.882812 575.78125 349.886719 575.035156 L 349.886719 574.59375 C 349.886719 574.289062 349.886719 573.984375 349.886719 573.675781 C 349.890625 573.285156 349.890625 572.890625 349.890625 572.5 C 349.890625 572.195312 349.890625 571.894531 349.894531 571.589844 L 349.894531 571.15625 C 349.894531 570.957031 349.894531 570.753906 349.894531 570.550781 L 349.894531 570.371094 L 349.898438 570.203125 L 349.898438 570.058594 L 349.90625 569.953125 Z M 349.96875 569.890625 " fill-opacity="1" fill-rule="nonzero"/><g transform="matrix(1, 0, 0, 1, 143, 490)"><g clip-path="url(#d5c943baca)"><g fill="#1c2649" fill-opacity="1"><g transform="translate(0.558578, 65.806911)"><g><path d="M 28.5 0.8125 C 23.59375 0.8125 19.171875 -0.242188 15.234375 -2.359375 C 11.296875 -4.472656 8.210938 -7.390625 5.984375 -11.109375 C 3.753906 -14.828125 2.640625 -19.003906 2.640625 -23.640625 C 2.640625 -28.273438 3.753906 -32.453125 5.984375 -36.171875 C 8.210938 -39.890625 11.296875 -42.804688 15.234375 -44.921875 C 19.171875 -47.035156 23.59375 -48.09375 28.5 -48.09375 C 33.414062 -48.09375 37.832031 -47.035156 41.75 -44.921875 C 45.664062 -42.804688 48.75 -39.890625 51 -36.171875 C 53.25 -32.453125 54.375 -28.273438 54.375 -23.640625 C 54.375 -19.003906 53.25 -14.828125 51 -11.109375 C 48.75 -7.390625 45.664062 -4.472656 41.75 -2.359375 C 37.832031 -0.242188 33.414062 0.8125 28.5 0.8125 Z M 28.5 -8.515625 C 31.289062 -8.515625 33.8125 -9.15625 36.0625 -10.4375 C 38.320312 -11.71875 40.09375 -13.503906 41.375 -15.796875 C 42.65625 -18.097656 43.296875 -20.710938 43.296875 -23.640625 C 43.296875 -26.566406 42.65625 -29.175781 41.375 -31.46875 C 40.09375 -33.769531 38.320312 -35.5625 36.0625 -36.84375 C 33.8125 -38.125 31.289062 -38.765625 28.5 -38.765625 C 25.707031 -38.765625 23.1875 -38.125 20.9375 -36.84375 C 18.6875 -35.5625 16.921875 -33.769531 15.640625 -31.46875 C 14.359375 -29.175781 13.71875 -26.566406 13.71875 -23.640625 C 13.71875 -20.710938 14.359375 -18.097656 15.640625 -15.796875 C 16.921875 -13.503906 18.6875 -11.71875 20.9375 -10.4375 C 23.1875 -9.15625 25.707031 -8.515625 28.5 -8.515625 Z M 28.5 -8.515625 "/></g></g></g><g fill="#1c2649" fill-opacity="1"><g transform="translate(57.56586, 65.806911)"><g><path d="M 48.96875 -47.28125 L 48.96875 0 L 39.984375 0 L 16.40625 -28.703125 L 16.40625 0 L 5.609375 0 L 5.609375 -47.28125 L 14.65625 -47.28125 L 38.15625 -18.578125 L 38.15625 -47.28125 Z M 48.96875 -47.28125 "/></g></g></g><g fill="#1c2649" fill-opacity="1"><g transform="translate(112.141557, 65.806911)"><g><path d="M 16.40625 -35.53125 L 25.734375 -35.53125 L 25.734375 -27.421875 L 16.6875 -27.421875 L 16.6875 0 L 6.140625 0 L 6.140625 -27.421875 L 0.546875 -27.421875 L 0.546875 -35.53125 L 6.140625 -35.53125 L 6.140625 -37.15625 C 6.140625 -41.289062 7.367188 -44.570312 9.828125 -47 C 12.285156 -49.4375 15.742188 -50.65625 20.203125 -50.65625 C 21.773438 -50.65625 23.269531 -50.484375 24.6875 -50.140625 C 26.101562 -49.804688 27.285156 -49.328125 28.234375 -48.703125 L 25.46875 -41.0625 C 24.25 -41.925781 22.828125 -42.359375 21.203125 -42.359375 C 18.003906 -42.359375 16.40625 -40.597656 16.40625 -37.078125 Z M 16.40625 -35.53125 "/></g></g></g><g fill="#1c2649" fill-opacity="1"><g transform="translate(138.28116, 65.806911)"><g><path d="M 4.859375 -50.125 L 15.40625 -50.125 L 15.40625 0 L 4.859375 0 Z M 4.859375 -50.125 "/></g></g></g><g fill="#1c2649" fill-opacity="1"><g transform="translate(158.611957, 65.806911)"><g><path d="M 22.15625 0.546875 C 18.320312 0.546875 14.882812 -0.25 11.84375 -1.84375 C 8.8125 -3.445312 6.4375 -5.664062 4.71875 -8.5 C 3.007812 -11.34375 2.15625 -14.566406 2.15625 -18.171875 C 2.15625 -21.773438 3.007812 -24.992188 4.71875 -27.828125 C 6.4375 -30.660156 8.8125 -32.875 11.84375 -34.46875 C 14.882812 -36.070312 18.320312 -36.875 22.15625 -36.875 C 25.976562 -36.875 29.398438 -36.070312 32.421875 -34.46875 C 35.441406 -32.875 37.804688 -30.660156 39.515625 -27.828125 C 41.222656 -24.992188 42.078125 -21.773438 42.078125 -18.171875 C 42.078125 -14.566406 41.222656 -11.34375 39.515625 -8.5 C 37.804688 -5.664062 35.441406 -3.445312 32.421875 -1.84375 C 29.398438 -0.25 25.976562 0.546875 22.15625 0.546875 Z M 22.15625 -8.109375 C 24.851562 -8.109375 27.066406 -9.019531 28.796875 -10.84375 C 30.535156 -12.664062 31.40625 -15.109375 31.40625 -18.171875 C 31.40625 -21.234375 30.535156 -23.675781 28.796875 -25.5 C 27.066406 -27.320312 24.851562 -28.234375 22.15625 -28.234375 C 19.457031 -28.234375 17.226562 -27.320312 15.46875 -25.5 C 13.707031 -23.675781 12.828125 -21.234375 12.828125 -18.171875 C 12.828125 -15.109375 13.707031 -12.664062 15.46875 -10.84375 C 17.226562 -9.019531 19.457031 -8.109375 22.15625 -8.109375 Z M 22.15625 -8.109375 "/></g></g></g><g fill="#1c2649" fill-opacity="1"><g transform="translate(201.840183, 65.806911)"><g><path d="M 63.21875 -36.34375 L 50.046875 0 L 39.921875 0 L 31.75 -22.5625 L 23.296875 0 L 13.171875 0 L 0.0625 -36.34375 L 10 -36.34375 L 18.578125 -11.75 L 27.484375 -36.34375 L 36.40625 -36.34375 L 45.046875 -11.75 L 53.90625 -36.34375 Z M 63.21875 -36.34375 "/></g></g></g></g></g></svg>